<svg width="56" height="56" viewBox="0 0 56 56" fill="none" xmlns="http://www.w3.org/2000/svg">
<path opacity="0.2" d="M27.9998 33.25C20.6274 33.2616 13.3831 31.3235 7.00146 27.6322V45.5C7.00146 45.7298 7.04673 45.9574 7.13467 46.1697C7.22262 46.382 7.35152 46.575 7.51402 46.7375C7.67653 46.9 7.86945 47.0289 8.08177 47.1168C8.29409 47.2048 8.52165 47.25 8.75146 47.25H47.2515C47.4813 47.25 47.7088 47.2048 47.9212 47.1168C48.1335 47.0289 48.3264 46.9 48.4889 46.7375C48.6514 46.575 48.7803 46.382 48.8683 46.1697C48.9562 45.9574 49.0015 45.7298 49.0015 45.5V27.6301C42.619 31.3228 35.3734 33.2616 27.9998 33.25Z" fill="#F249C8"/>
<path d="M47.2515 15.75H8.75146C7.78497 15.75 7.00146 16.5335 7.00146 17.5V45.5C7.00146 46.4665 7.78497 47.25 8.75146 47.25H47.2515C48.218 47.25 49.0015 46.4665 49.0015 45.5V17.5C49.0015 16.5335 48.218 15.75 47.2515 15.75Z" stroke="#F249C8" stroke-width="3" stroke-linecap="round" stroke-linejoin="round"/>
<path d="M36.75 15.75V12.25C36.75 11.3217 36.3813 10.4315 35.7249 9.77513C35.0685 9.11875 34.1783 8.75 33.25 8.75H22.75C21.8217 8.75 20.9315 9.11875 20.2751 9.77513C19.6187 10.4315 19.25 11.3217 19.25 12.25V15.75" stroke="#F249C8" stroke-width="3" stroke-linecap="round" stroke-linejoin="round"/>
<path d="M49.0018 27.6301C42.6193 31.3227 35.3737 33.2616 28 33.25C20.6276 33.2616 13.3832 31.3234 7.00146 27.632" stroke="#F249C8" stroke-width="3" stroke-linecap="round" stroke-linejoin="round"/>
<path d="M25.375 26.25H30.625" stroke="#F249C8" stroke-width="3" stroke-linecap="round" stroke-linejoin="round"/>
</svg>
