<svg width="32" height="32" viewBox="0 0 32 32" fill="none" xmlns="http://www.w3.org/2000/svg">
<path opacity="0.2" d="M26.4239 15.9291L23.0007 9.00037H9.00065L5.57731 15.9292C5.49609 16.0936 5.46164 16.2772 5.47774 16.4599C5.49383 16.6426 5.55984 16.8173 5.66856 16.965L16.0007 31.0004L26.3327 16.965C26.4414 16.8173 26.5074 16.6425 26.5235 16.4598C26.5396 16.2772 26.5052 16.0936 26.4239 15.9291ZM16.0007 19.0004C15.5062 19.0004 15.0229 18.8537 14.6117 18.579C14.2006 18.3043 13.8802 17.9139 13.691 17.4571C13.5017 17.0003 13.4522 16.4976 13.5487 16.0126C13.6452 15.5277 13.8833 15.0822 14.2329 14.7326C14.5825 14.383 15.028 14.1449 15.5129 14.0484C15.9979 13.9519 16.5005 14.0014 16.9574 14.1907C17.4142 14.3799 17.8046 14.7003 18.0793 15.1114C18.354 15.5226 18.5007 16.0059 18.5007 16.5004C18.5007 16.8287 18.436 17.1538 18.3104 17.4571C18.1847 17.7604 18.0006 18.036 17.7684 18.2681C17.5363 18.5003 17.2607 18.6844 16.9574 18.8101C16.6541 18.9357 16.329 19.0004 16.0007 19.0004Z" fill="#E94967"/>
<path d="M16.0007 19.0004L16.0007 31.0004" stroke="#E94967" stroke-width="2" stroke-linecap="round" stroke-linejoin="round"/>
<path d="M16.0007 19.0004C17.3814 19.0004 18.5007 17.8811 18.5007 16.5004C18.5007 15.1197 17.3814 14.0004 16.0007 14.0004C14.62 14.0004 13.5007 15.1197 13.5007 16.5004C13.5007 17.8811 14.62 19.0004 16.0007 19.0004Z" stroke="#E94967" stroke-width="2" stroke-linecap="round" stroke-linejoin="round"/>
<path d="M9.00073 9.00037V4.00037C9.00073 3.73515 9.10609 3.4808 9.29363 3.29326C9.48116 3.10572 9.73552 3.00037 10.0007 3.00037H22.0007C22.2659 3.00037 22.5203 3.10572 22.7078 3.29326C22.8954 3.4808 23.0007 3.73515 23.0007 4.00037V9.00037" stroke="#E94967" stroke-width="2" stroke-linecap="round" stroke-linejoin="round"/>
<path d="M9.00066 9.00037L5.57733 15.9292C5.4961 16.0936 5.46164 16.2772 5.47773 16.4599C5.49382 16.6426 5.55984 16.8173 5.66855 16.965L16.0007 31.0004L26.3327 16.9649C26.4414 16.8173 26.5074 16.6425 26.5235 16.4598C26.5396 16.2772 26.5052 16.0936 26.4239 15.9292L23.0007 9.00037H9.00066Z" stroke="#E94967" stroke-width="2" stroke-linecap="round" stroke-linejoin="round"/>
</svg>
