<svg width="36" height="32" viewBox="0 0 36 32" fill="none" xmlns="http://www.w3.org/2000/svg">
<path d="M19.4417 0.993703C18.7994 -0.113215 17.2008 -0.113219 16.5585 0.993703L12.0351 8.78922C11.7178 9.33602 11.1694 9.70918 10.5443 9.80359L2.06712 11.084C0.643318 11.299 0.143885 13.0967 1.25273 14.0154L7.56788 19.2474C8.15245 19.7317 8.42732 20.4957 8.28531 21.2414L6.63337 29.9166C6.37223 31.288 7.81187 32.3535 9.04712 31.7031L17.0295 27.5001C17.637 27.1802 18.3632 27.1802 18.9707 27.5001L26.9531 31.7031C28.1883 32.3535 29.628 31.288 29.3668 29.9166L27.7149 21.2414C27.5729 20.4957 27.8478 19.7317 28.4323 19.2474L34.7475 14.0154C35.8563 13.0967 35.3569 11.299 33.9331 11.084L25.4559 9.80359C24.8308 9.70918 24.2824 9.33602 23.9651 8.78922L19.4417 0.993703Z" fill="#FF8800"/>
</svg>
