<svg width="31" height="36" viewBox="0 0 31 36" fill="none" xmlns="http://www.w3.org/2000/svg">
<g filter="url(#filter0_d_25_208)">
<path d="M15.722 1L6.446 14.494C5.886 15.306 5.606 15.712 5.626 16.05C5.63287 16.1952 5.67132 16.3372 5.73868 16.466C5.80604 16.5949 5.90067 16.7075 6.016 16.796C6.286 17 6.776 17 7.764 17H15.722V27L24.998 13.506C25.558 12.694 25.838 12.288 25.818 11.95C25.8111 11.8048 25.7727 11.6628 25.7053 11.534C25.638 11.4051 25.5433 11.2925 25.428 11.204C25.158 11 24.668 11 23.68 11H15.722V1Z" fill="#E94967"/>
<path d="M15.722 1L6.446 14.494C5.886 15.306 5.606 15.712 5.626 16.05C5.63287 16.1952 5.67132 16.3372 5.73868 16.466C5.80604 16.5949 5.90067 16.7075 6.016 16.796C6.286 17 6.776 17 7.764 17H15.722V27L24.998 13.506C25.558 12.694 25.838 12.288 25.818 11.95C25.8111 11.8048 25.7727 11.6628 25.7053 11.534C25.638 11.4051 25.5433 11.2925 25.428 11.204C25.158 11 24.668 11 23.68 11H15.722V1Z" stroke="#E94967" stroke-width="2" stroke-linecap="round" stroke-linejoin="round"/>
</g>
<defs>
<filter id="filter0_d_25_208" x="0.625" y="0" width="30.1938" height="36" filterUnits="userSpaceOnUse" color-interpolation-filters="sRGB">
<feFlood flood-opacity="0" result="BackgroundImageFix"/>
<feColorMatrix in="SourceAlpha" type="matrix" values="0 0 0 0 0 0 0 0 0 0 0 0 0 0 0 0 0 0 127 0" result="hardAlpha"/>
<feOffset dy="4"/>
<feGaussianBlur stdDeviation="2"/>
<feComposite in2="hardAlpha" operator="out"/>
<feColorMatrix type="matrix" values="0 0 0 0 0 0 0 0 0 0 0 0 0 0 0 0 0 0 0.25 0"/>
<feBlend mode="normal" in2="BackgroundImageFix" result="effect1_dropShadow_25_208"/>
<feBlend mode="normal" in="SourceGraphic" in2="effect1_dropShadow_25_208" result="shape"/>
</filter>
</defs>
</svg>
